inDegrees=no
num_controls=7
num_derivatives=13
num_iterations=139
num_multipliers=7
num_parameters=0
num_slacks=7
num_states=26
objective=0.552734
objective_accelerations=0.034528
objective_balance=0.002616
objective_effort=0.033574
objective_height=0.472857
objective_ligament=0.009158
solver_duration=1636.645495
status=Solve_Succeeded
success=true
DataType=double
version=3
OpenSimVersion=4.5
endheader
time	/jointset/ground_pelvis/pelvis_tilt/value	/jointset/ground_pelvis/pelvis_tx/value	/jointset/ground_pelvis/pelvis_ty/value	/jointset/hip_r/hip_flexion_r/value	/jointset/hip_r/hip_adduction_r/value	/jointset/hip_r/hip_rotation_r/value	/jointset/back/lumbar_extension/value	/jointset/patellofemoral_r/patellar_flexion_r/value	/jointset/knee_r/knee_flexion_r/value	/jointset/knee_r/knee_adduction_r/value	/jointset/knee_r/knee_rotation_r/value	/jointset/ankle_r/ankle_angle_r/value	/jointset/subtalar_r/subtalar_angle_r/value	/jointset/ground_pelvis/pelvis_tilt/speed	/jointset/ground_pelvis/pelvis_tx/speed	/jointset/ground_pelvis/pelvis_ty/speed	/jointset/hip_r/hip_flexion_r/speed	/jointset/hip_r/hip_adduction_r/speed	/jointset/hip_r/hip_rotation_r/speed	/jointset/back/lumbar_extension/speed	/jointset/patellofemoral_r/patellar_flexion_r/speed	/jointset/knee_r/knee_flexion_r/speed	/jointset/knee_r/knee_adduction_r/speed	/jointset/knee_r/knee_rotation_r/speed	/jointset/ankle_r/ankle_angle_r/speed	/jointset/subtalar_r/subtalar_angle_r/speed	/forceset/tau_hip_flexion_r	/forceset/tau_hip_adduction_r	/forceset/tau_hip_rotation_r	/forceset/tau_knee_flexion_r	/forceset/tau_ankle_angle_r	/forceset/tau_subtalar_angle_r	/forceset/tau_lumbar_extension	lambda_cid13_p0	lambda_cid14_p0	lambda_cid14_p1	lambda_cid14_p2	lambda_cid14_p3	lambda_cid14_p4	lambda_cid14_p5	/jointset/ground_pelvis/pelvis_tilt/accel	/jointset/ground_pelvis/pelvis_tx/accel	/jointset/ground_pelvis/pelvis_ty/accel	/jointset/hip_r/hip_flexion_r/accel	/jointset/hip_r/hip_adduction_r/accel	/jointset/hip_r/hip_rotation_r/accel	/jointset/back/lumbar_extension/accel	/jointset/patellofemoral_r/patellar_flexion_r/accel	/jointset/knee_r/knee_flexion_r/accel	/jointset/knee_r/knee_adduction_r/accel	/jointset/knee_r/knee_rotation_r/accel	/jointset/ankle_r/ankle_angle_r/accel	/jointset/subtalar_r/subtalar_angle_r/accel	gamma_cid13_p0	gamma_cid14_p0	gamma_cid14_p1	gamma_cid14_p2	gamma_cid14_p3	gamma_cid14_p4	gamma_cid14_p5
0.5	-0.07132232806314974	0.06220370210326329	0.8748592294736146	0.6242452057482959	-0.2276859673196364	-0.1440382091633303	-0.3084857286367221	0.643583599014013	0.643583599014013	0.0422146324458678	0.1745321879969962	0.2607787493036104	0.0592605405457234	-0.1871835742619935	-0.06927109387485761	-0.2823597706102677	1.222381824816601	-0.008439677396334614	0.236147824892395	-0.604232551444487	1.558661841715935	1.558661841715936	-0.2745626501269074	1.283251235763531e-05	0.6100849949994582	0.165162498047563	-0.05534889005656748	-0.02041201204654038	0.006439126510864693	-0.3349325310992528	0.05904930055884904	-0.01094966979002416	0.1211179766660144	-34.42662632783797	-23.41408787227953	-4.715035216690019	-3.517251670147926	4.384098492417412	-672.4794087222208	60.60932434492433	0.04656756797883395	0.2164520926044366	-0.318381210421843	-0.7416260580503976	-0.08581441224575675	-0.46977070504018	1.125999881438181	-0.9854163326895546	-0.985416332689554	0.4396452917402575	-0.01273382768953026	-0.4234292731397674	-0.09479062501271246	-9.538903170302624e-08	-1.249165601701828e-07	5.180304922035682e-07	-1.076592368239603e-06	1.603571053636805e-08	-1.491896808547686e-07	8.401360172188481e-07
0.51	-0.07319170462896483	0.06152194056023169	0.8720203145842629	0.6364301939539093	-0.227775139032732	-0.1416997402787813	-0.3144707422920203	0.659118606977858	0.659118606977858	0.03949252007010009	0.1745318234595088	0.2668574118799462	0.06090643939161493	-0.1866656288443168	-0.06706979640117275	-0.2853577399836281	1.214437344696252	-0.009377206087150917	0.23150289534691	-0.5926857617095077	1.548107518509702	1.548107518509702	-0.2698879572364838	-7.242892062883478e-05	0.6055682407877011	0.1640140207889521	-0.05999516133257594	-0.0187749038475537	0.007069343052696664	-0.3377410509032286	0.05488280092977129	-0.01027539888490219	0.1255136526728189	-33.60523838525618	-24.86213357823723	-4.775224133895724	-3.394022625876486	4.893834257619599	-675.2467539354967	60.4979359055604	0.05831342385846519	0.2236853216325773	-0.280713547017401	-0.8476436282517881	-0.09524488656843919	-0.4684711149207273	1.181681205370798	-1.125256962927942	-1.125256962927949	0.477165273111094	-0.004609099038297659	-0.477698233721432	-0.1254155819825165	-8.81245765046881e-08	-1.197395546738142e-07	4.461143867503279e-07	-1.03308201128145e-06	2.029979664582365e-08	-1.392689721385693e-07	7.698872154946965e-07
0.52	-0.0750551206615639	0.06086253534131335	0.8691533782519333	0.6485303804304743	-0.2278731905905495	-0.1394090440968108	-0.3203377555127999	0.6745411083799729	0.6745411083799729	0.03681631142032015	0.1745309689481045	0.2728885269664588	0.06254074560378091	-0.1859914676187849	-0.0647998290522052	-0.2879640592058741	1.205421479006918	-0.01021564634072208	0.2265932843767028	-0.5806324645408083	1.536160529369961	1.536160529369961	-0.2653819049293529	-8.516227101873994e-05	0.6005754970348336	0.1628439713024516	-0.06464143260868055	-0.01713779564856701	0.007699559594528638	-0.3405495707072045	0.05071630130069354	-0.009601127979780225	0.1299093286796234	-32.76469189383395	-26.31760150690108	-4.833720299605408	-3.274482188160944	5.396749356465347	-678.1374024210846	60.45064214023719	0.07781072954988592	0.2301860676609782	-0.2400511801989542	-0.9559031718473132	-0.06599672479672407	-0.5227069899845567	1.22730136818219	-1.263949519391112	-1.263949519391112	0.4059171750817097	0.001771788829808315	-0.518627181361872	-0.09910507059063718	-8.198003387654065e-08	-1.130264156229988e-07	4.033122377588744e-07	-9.77116686717304e-07	2.093239427945743e-08	-1.293296518352899e-07	7.108083190442359e-07
0.53	-0.07691103920576572	0.06022610836621949	0.8662623465242393	0.6605352444792947	-0.2279791841762323	-0.1371684747580689	-0.3260817299115923	0.689837372803329	0.6898373728033291	0.03418452400661386	0.1745302221262958	0.2788673500834443	0.0641631521907729	-0.1851703843143701	-0.06248036225590068	-0.2901763498529302	1.195391463901724	-0.01097785794823197	0.221510916959397	-0.5680776439441322	1.52287777911517	1.522877779115169	-0.2609666487647303	-6.16445015193714e-05	0.5951084208669014	0.1616155180522292	-0.06936995002942688	-0.01539117747222863	0.008365413087520852	-0.3430210490817696	0.04611188674563554	-0.009058085683470218	0.1343369224611761	-31.90834439251081	-27.92129190040308	-4.986445471718054	-3.1270296431175	6.068958556472531	-680.9752977640269	60.22038472216873	0.0875256676370377	0.2336117951488114	-0.2019523567616723	-1.050543162077405	-0.0806819469832341	-0.5025900216911771	1.282288096442965	-1.392608455918363	-1.392608455918361	0.4606706459577183	0.00286125054973467	-0.5728601510346782	-0.1380416799166024	-6.505392164707115e-08	-6.122945150373309e-08	5.120951615329462e-07	-5.784595407423557e-07	-2.18682585584157e-08	-7.350780337056159e-08	5.864201559265259e-07
